<svg width="20" height="20" viewBox="0 0 20 20" fill="none" xmlns="http://www.w3.org/2000/svg">
<path d="M6.66667 7.49992C6.43056 7.49992 6.23278 7.41992 6.07334 7.25992C5.91389 7.09992 5.83389 6.90214 5.83334 6.66659C5.83278 6.43103 5.91278 6.23325 6.07334 6.07325C6.23389 5.91325 6.43167 5.83325 6.66667 5.83325H16.6667C16.9028 5.83325 17.1008 5.91325 17.2608 6.07325C17.4208 6.23325 17.5006 6.43103 17.5 6.66659C17.4994 6.90214 17.4194 7.1002 17.26 7.26075C17.1006 7.42131 16.9028 7.50103 16.6667 7.49992H6.66667ZM6.66667 10.8333C6.43056 10.8333 6.23278 10.7533 6.07334 10.5933C5.91389 10.4333 5.83389 10.2355 5.83334 9.99992C5.83278 9.76436 5.91278 9.56659 6.07334 9.40659C6.23389 9.24659 6.43167 9.16659 6.66667 9.16659H16.6667C16.9028 9.16659 17.1008 9.24659 17.2608 9.40659C17.4208 9.56659 17.5006 9.76436 17.5 9.99992C17.4994 10.2355 17.4194 10.4335 17.26 10.5941C17.1006 10.7546 16.9028 10.8344 16.6667 10.8333H6.66667ZM6.66667 14.1666C6.43056 14.1666 6.23278 14.0866 6.07334 13.9266C5.91389 13.7666 5.83389 13.5688 5.83334 13.3333C5.83278 13.0977 5.91278 12.8999 6.07334 12.7399C6.23389 12.5799 6.43167 12.4999 6.66667 12.4999H16.6667C16.9028 12.4999 17.1008 12.5799 17.2608 12.7399C17.4208 12.8999 17.5006 13.0977 17.5 13.3333C17.4994 13.5688 17.4194 13.7669 17.26 13.9274C17.1006 14.088 16.9028 14.1677 16.6667 14.1666H6.66667ZM3.33334 7.49992C3.09723 7.49992 2.89945 7.41992 2.74 7.25992C2.58056 7.09992 2.50056 6.90214 2.5 6.66659C2.49945 6.43103 2.57945 6.23325 2.74 6.07325C2.90056 5.91325 3.09834 5.83325 3.33334 5.83325C3.56834 5.83325 3.76639 5.91325 3.9275 6.07325C4.08861 6.23325 4.16834 6.43103 4.16667 6.66659C4.165 6.90214 4.085 7.1002 3.92667 7.26075C3.76834 7.42131 3.57056 7.50103 3.33334 7.49992ZM3.33334 10.8333C3.09723 10.8333 2.89945 10.7533 2.74 10.5933C2.58056 10.4333 2.50056 10.2355 2.5 9.99992C2.49945 9.76436 2.57945 9.56659 2.74 9.40659C2.90056 9.24659 3.09834 9.16659 3.33334 9.16659C3.56834 9.16659 3.76639 9.24659 3.9275 9.40659C4.08861 9.56659 4.16834 9.76436 4.16667 9.99992C4.165 10.2355 4.085 10.4335 3.92667 10.5941C3.76834 10.7546 3.57056 10.8344 3.33334 10.8333ZM3.33334 14.1666C3.09723 14.1666 2.89945 14.0866 2.74 13.9266C2.58056 13.7666 2.50056 13.5688 2.5 13.3333C2.49945 13.0977 2.57945 12.8999 2.74 12.7399C2.90056 12.5799 3.09834 12.4999 3.33334 12.4999C3.56834 12.4999 3.76639 12.5799 3.9275 12.7399C4.08861 12.8999 4.16834 13.0977 4.16667 13.3333C4.165 13.5688 4.085 13.7669 3.92667 13.9274C3.76834 14.088 3.57056 14.1677 3.33334 14.1666Z" fill="currentColor"/>
</svg>
