<svg
          version="1.0"
          xmlns="http://www.w3.org/2000/svg"
          width="300.000000pt"
          height="104.000000pt"
          viewBox="0 0 300.000000 104.000000"
          preserveAspectRatio="xMidYMid meet"
        >
          <g
            transform="translate(0.000000,104.000000) scale(0.100000,-0.100000)"
            fill="currentColor"
            stroke="none"
          >
            <path
              d="M710 746 l0 -64 -68 -4 c-105 -6 -142 -44 -142 -149 0 -27 -5 -51 -12 -56 -7 -4 -44 -10 -82 -14 -62 -6 -73 -10 -98 -38 -26 -29 -28 -38 -28 -112 l0 -80 53 3 52 3 5 60 5 60 67 6 c37 3 78 13 93 23 33 22 64 89 65 137 0 44 10 49 91 49 l59 0 0 51 c0 42 -3 52 -20 56 -11 3 -20 12 -20 19 0 10 14 14 50 14 l50 0 0 50 0 50 -60 0 -60 0 0 -64z m90 14 c0 -16 -7 -20 -35 -20 -28 0 -35 4 -35 20 0 16 7 20 35 20 28 0 35 -4 35 -20z m-87 -122 c4 -10 8 -9 16 2 8 12 11 8 11 -17 l0 -33 -65 0 c-72 0 -85 -11 -85 -70 0 -48 -25 -97 -59 -114 -16 -9 -55 -16 -85 -16 -66 0 -86 -20 -86 -87 0 -39 -2 -43 -24 -43 -21 0 -24 6 -28 39 -8 88 24 131 98 131 53 0 102 17 114 40 6 10 10 42 10 70 0 44 5 56 29 81 26 26 36 29 89 29 39 0 62 -4 65 -12z"
            />
            <path
              d="M955 620 c-9 -29 2 -40 39 -40 l33 0 -5 -89 -5 -88 29 -6 c16 -3 32 -3 36 0 5 2 8 44 8 94 l0 89 36 0 c33 0 35 2 32 28 l-3 27 -97 3 c-89 2 -97 1 -103 -18z"
            />
            <path
              d="M1180 520 l0 -120 30 0 c29 0 30 1 30 50 0 28 3 50 8 49 4 0 21 -21 38 -47 l31 -47 71 -3 c70 -3 72 -2 78 23 6 24 10 26 53 23 39 -3 46 -6 49 -25 3 -19 10 -23 39 -23 24 0 34 4 30 13 -3 6 -24 61 -47 120 -42 106 -44 108 -73 105 -27 -3 -32 -10 -74 -115 -25 -62 -48 -113 -52 -112 -3 0 -19 16 -34 35 l-29 34 26 31 c29 34 30 38 16 73 -13 36 -59 56 -130 56 l-60 0 0 -120z m138 34 c3 -24 -10 -32 -48 -30 -20 1 -26 7 -28 29 -3 27 -2 28 35 25 30 -2 39 -8 41 -24z m216 -16 c9 -35 8 -38 -18 -38 -23 0 -24 2 -15 30 13 36 24 38 33 8z"
            />
            <path
              d="M1713 625 c-42 -18 -66 -56 -66 -106 0 -81 44 -119 138 -119 54 0 55 1 55 29 0 28 -1 29 -54 27 -61 -1 -73 6 -81 49 -10 50 13 70 79 69 55 -2 56 -1 56 26 0 20 -6 29 -22 34 -36 9 -70 6 -105 -9z"
            />
            <path
              d="M1870 520 l0 -120 31 0 32 0 -5 50 c-5 52 6 76 20 43 4 -10 18 -35 31 -55 l23 -38 140 0 139 0 -3 28 c-3 27 -4 27 -66 25 l-64 -3 52 58 c29 31 57 59 61 60 5 2 9 19 9 38 l0 34 -89 0 c-72 0 -90 -3 -95 -16 -14 -36 -7 -43 49 -46 l55 -3 -55 -62 c-33 -36 -55 -71 -55 -85 -1 -22 -2 -21 -30 12 -57 68 -57 73 -16 132 20 29 36 57 36 61 0 4 -15 7 -34 7 -31 0 -37 -5 -66 -55 -17 -30 -35 -55 -39 -55 -4 0 -6 25 -3 55 l4 55 -31 0 -31 0 0 -120z"
            />
            <path
              d="M2307 633 c-4 -3 -7 -57 -7 -120 l0 -113 91 0 90 0 -3 28 c-3 26 -5 27 -60 27 -49 0 -58 2 -58 17 0 15 9 18 51 18 49 0 50 1 47 28 -3 25 -6 27 -50 25 -41 -1 -48 2 -48 18 0 17 8 19 60 19 60 0 60 0 60 30 l0 30 -83 0 c-46 0 -87 -3 -90 -7z"
            />
            <path
              d="M2510 520 l0 -120 30 0 c29 0 29 0 32 67 l3 67 39 -66 c31 -53 44 -67 67 -70 16 -3 31 -2 34 0 3 3 5 59 5 124 l0 118 -29 0 c-17 0 -32 -3 -34 -7 -3 -5 -1 -33 3 -63 4 -30 5 -59 3 -63 -3 -4 -25 24 -50 63 -39 60 -49 70 -74 70 l-29 0 0 -120z m58 23 c-16 -20 -28 -15 -28 10 0 32 11 40 26 19 9 -12 9 -21 2 -29z m115 -80 c-7 -18 -20 -16 -27 4 -4 9 -1 20 6 24 15 9 28 -8 21 -28z"
            />
          </g>
        </svg>