<svg
              xmlns="http://www.w3.org/2000/svg"
              width="24px"
              height="24px"
              viewBox="0 0 24 24"
            >
              <path
                fill="currentColor"
                fill-rule="evenodd"
                d="M12 1a2 2 0 0 0-1.98 2.284A7 7 0 0 0 5 10v8H4a1 1 0 1 0 0 2h16a1 1 0 1 0 0-2h-1v-8a7 7 0 0 0-5.02-6.716Q14 3.144 14 3a2 2 0 0 0-2-2m2 21a1 1 0 0 1-1 1h-2a1 1 0 1 1 0-2h2a1 1 0 0 1 1 1"
                clip-rule="evenodd"
              />
            </svg>