<svg xmlns="http://www.w3.org/2000/svg" width="24" height="24" viewBox="0 0 24 24"><g fill="none" fill-rule="evenodd"><path d="m12.594 23.258l-.012.002l-.071.035l-.02.004l-.014-.004l-.071-.036q-.016-.004-.024.006l-.004.01l-.017.428l.005.02l.01.013l.104.074l.015.004l.012-.004l.104-.074l.012-.016l.004-.017l-.017-.427q-.004-.016-.016-.018m.264-.113l-.014.002l-.184.093l-.01.01l-.003.011l.018.43l.005.012l.008.008l.201.092q.019.005.029-.008l.004-.014l-.034-.614q-.005-.019-.02-.022m-.715.002a.02.02 0 0 0-.027.006l-.006.014l-.034.614q.001.018.017.024l.015-.002l.201-.093l.01-.008l.003-.011l.018-.43l-.003-.012l-.01-.01z"/><path fill="currentColor" d="M7.416 3A5 5 0 0 0 7 5a2 2 0 0 0 2 2h6a2 2 0 0 0 2-2c0-.711-.148-1.388-.416-2H18a2 2 0 0 1 2 2v15a2 2 0 0 1-2 2H6a2 2 0 0 1-2-2V5a2 2 0 0 1 2-2zM12 14H9a1 1 0 1 0 0 2h3a1 1 0 1 0 0-2m3-4H9a1 1 0 0 0-.117 1.993L9 12h6a1 1 0 1 0 0-2m-3-8a3 3 0 0 1 2.236 1c.428.478.704 1.093.755 1.772L15 5H9c0-.725.257-1.39.685-1.908L9.764 3c.55-.614 1.348-1 2.236-1"/></g></svg>