<svg width="30" height="30" viewBox="0 0 30 30" fill="none" xmlns="http://www.w3.org/2000/svg">
<rect x="0.5" y="0.5" width="29" height="29" rx="14.5" stroke="black"/>
<g clip-path="url(#clip0_82_131)">
<path d="M19.5833 10.4166H19.5917M10.8333 6.66663H19.1667C21.4678 6.66663 23.3333 8.53211 23.3333 10.8333V19.1666C23.3333 21.4678 21.4678 23.3333 19.1667 23.3333H10.8333C8.53214 23.3333 6.66666 21.4678 6.66666 19.1666V10.8333C6.66666 8.53211 8.53214 6.66663 10.8333 6.66663ZM18.3333 14.475C18.4362 15.1685 18.3177 15.8768 17.9948 16.4991C17.6719 17.1215 17.1609 17.6261 16.5347 17.9414C15.9084 18.2566 15.1987 18.3663 14.5065 18.2549C13.8143 18.1435 13.1748 17.8167 12.679 17.3209C12.1833 16.8252 11.8564 16.1857 11.745 15.4935C11.6337 14.8013 11.7434 14.0915 12.0586 13.4653C12.3738 12.839 12.8785 12.3281 13.5008 12.0052C14.1231 11.6822 14.8315 11.5638 15.525 11.6666C16.2324 11.7715 16.8874 12.1012 17.3931 12.6069C17.8988 13.1126 18.2284 13.7675 18.3333 14.475Z" stroke="#1E1E1E" stroke-width="2" stroke-linecap="round" stroke-linejoin="round"/>
</g>
<defs>
<clipPath id="clip0_82_131">
<rect width="20" height="20" fill="white" transform="translate(5 5)"/>
</clipPath>
</defs>
</svg>
