<svg width="30" height="30" viewBox="0 0 30 30" fill="none" xmlns="http://www.w3.org/2000/svg">
<rect x="0.5" y="0.5" width="29" height="29" rx="14.5" stroke="black"/>
<g clip-path="url(#clip0_82_130)">
<path d="M24.1667 7.49996C23.3687 8.06285 22.4851 8.49338 21.55 8.77496C21.0481 8.19788 20.3811 7.78887 19.6392 7.60323C18.8973 7.41759 18.1163 7.46429 17.4017 7.737C16.6872 8.00972 16.0737 8.49529 15.6442 9.12805C15.2146 9.76082 14.9898 10.5102 15 11.275V12.1083C13.5355 12.1463 12.0844 11.8215 10.7759 11.1628C9.4673 10.5042 8.34194 9.53215 7.50001 8.33329C7.50001 8.33329 4.16668 15.8333 11.6667 19.1666C9.95045 20.3316 7.90597 20.9157 5.83334 20.8333C13.3333 25 22.5 20.8333 22.5 11.25C22.4992 11.0178 22.4769 10.7863 22.4333 10.5583C23.2838 9.71953 23.884 8.66055 24.1667 7.49996Z" stroke="#1E1E1E" stroke-width="2" stroke-linecap="round" stroke-linejoin="round"/>
</g>
<defs>
<clipPath id="clip0_82_130">
<rect width="20" height="20" fill="white" transform="translate(5 5)"/>
</clipPath>
</defs>
</svg>
